PathFileType	4	(X/Y/Z)	G:\Shared drives\HPL_Drive\Pi-Spi Study\20230118_AMCsubject1\Trimmed_left_horiz_abd01_rotated.trc
DataRate	CameraRate	NumFrames	NumMarkers	Units	OrigDataRate	OrigDataStartFrame	OrigNumFrames
200.00	200.00	       12	35	mm	200.00	101	       200
Frame#	Time	C7			Sternum			r_AMC1			r_AMC2			r_AMC3			l_AMC1			l_AMC2			l_AMC3			PX			T8			r_humerous			r_elbow_medial			r_elbow_lateral			r_forearm			r_wrist_radius			r_wrist_ulna			r_MCP_1			r_MCP_3			l_humerous			l_elbow_medial			l_elbow_lateral			l_forearm			l_wrist_radius			l_wrist_ulna			l_MCP_1			l_MCP_3			r_ASIS			r_PSIS			l_ASIS			l_PSIS			r_IC			l_IC			TS			AI			AA			
		X1	Y1	Z1	X2	Y2	Z2	X3	Y3	Z3	X4	Y4	Z4	X5	Y5	Z5	X6	Y6	Z6	X7	Y7	Z7	X8	Y8	Z8	X9	Y9	Z9	X10	Y10	Z10	X11	Y11	Z11	X12	Y12	Z12	X13	Y13	Z13	X14	Y14	Z14	X15	Y15	Z15	X16	Y16	Z16	X17	Y17	Z17	X18	Y18	Z18	X19	Y19	Z19	X20	Y20	Z20	X21	Y21	Z21	X22	Y22	Z22	X23	Y23	Z23	X24	Y24	Z24	X25	Y25	Z25	X26	Y26	Z26	X27	Y27	Z27	X28	Y28	Z28	X29	Y29	Z29	X30	Y30	Z30	X31	Y31	Z31	X32	Y32	Z32	X33	Y33	Z33	X34	Y34	Z34	X35	Y35	Z35	

101	0.5	233.9623	1374.27	-200.5183	370.2068	1322.9357	-220.0426	240.463	1327.4777	-61.6692	275.3334	1332.7389	-26.4797	294.4638	1366.1173	-50.065	193.5822	1355.0187	-315.1207	214.868	1374.496	-357.4365	245.5337	1401.3995	-321.9486	428.6291	1126.5116	-237.7367	194.2282	1198.2948	-204.4841	346.2708	1149.514	-6.9594	273.0954	1008.0857	-22.8207	294.014	1021.397	39.9159	351.5907	867.213	62.7525	399.7945	804.0139	41.4357	354.1959	798.2513	65.104	424.002	722.455	54.4801	377.1337	718.6194	74.0181	264.4209	1347.2051	-509.9717	219.8378	1258.1999	-617.6197	188.1809	1299.295	-624.6174	160.4954	1311.941	-780.2736	165.1674	1323.9209	-856.9098	159.0021	1281.1527	-856.0533	146.8692	1324.7632	-933.2248	148.5602	1281.1365	-934.3953	389.2523	904.3097	-99.8242	198.8573	932.7152	-170.2162	374.9019	890.0463	-356.0888	193.4714	927.4481	-271.9797	313.5187	967.841	-63.8837	289.4676	942.4687	-387.3251	138.1285	1298.0746	-248.2092	150.6699	1201.3689	-275.101	142.3417	1340.2256	-380.3184
102	0.505	233.9674	1374.2626	-200.5233	370.2287	1322.9424	-220.0271	240.4691	1327.5126	-61.6735	275.3468	1332.7198	-26.4504	294.4837	1366.1245	-50.0597	193.6119	1355.0162	-315.1419	214.8978	1374.4911	-357.4268	245.5797	1401.416	-321.9523	428.5961	1126.522	-237.7398	194.2448	1198.2795	-204.5074	346.3319	1149.5656	-6.9586	273.0251	1008.1113	-22.7617	294.0578	1021.4892	39.97	351.6079	867.2333	62.8069	399.8231	804.0453	41.4668	354.2409	798.2678	65.1464	424.0172	722.5081	54.5472	377.1185	718.7042	74.0419	264.4808	1347.1736	-509.9348	219.7719	1258.1876	-617.5762	188.123	1299.3026	-624.6176	160.4312	1311.9745	-780.254	165.1068	1323.9108	-856.8956	158.9194	1281.1583	-856.0381	146.9827	1324.5573	-933.3533	148.4654	1281.0885	-934.3481	389.2373	904.3355	-99.8038	198.8592	932.7175	-170.195	374.911	890.0574	-356.0428	193.6065	927.5187	-272.323	313.4647	967.8557	-63.8344	289.5226	942.4101	-387.3519	138.1503	1298.0717	-248.2567	150.7136	1201.3707	-275.1249	142.3616	1340.2071	-380.3642
103	0.51	233.9548	1374.2737	-200.5261	370.2225	1322.9508	-220.0149	240.4624	1327.5446	-61.6686	275.3384	1332.7588	-26.4559	294.4241	1366.1904	-50.0151	193.6333	1355.0269	-315.1344	214.9389	1374.5253	-357.4205	245.6096	1401.3848	-321.9204	428.6682	1126.5155	-237.6701	194.231	1198.3252	-204.52	346.3025	1149.5869	-6.9177	273.023	1008.1595	-22.6896	294.07	1021.4784	39.9761	351.6245	867.2871	62.8552	399.8849	804.0299	41.4936	354.2687	798.3118	65.1953	424.0664	722.5165	54.5805	377.1435	718.7003	74.0667	264.4891	1347.1314	-509.9576	219.6973	1258.2006	-617.5634	188.0984	1299.328	-624.5906	160.3828	1312.0059	-780.2391	165.0349	1323.9131	-856.8607	158.8017	1281.1883	-856.0043	146.7423	1324.7853	-933.1876	148.3699	1281.1189	-934.3388	389.2622	904.3209	-99.7549	198.8683	932.7123	-170.1422	374.9569	890.0674	-356.0008	193.6195	927.5039	-272.293	313.5319	967.8872	-63.8039	289.6131	942.3596	-387.2769	138.1198	1298.052	-248.2853	150.7372	1201.371	-275.1205	142.396	1340.2281	-380.3925
104	0.515	233.949	1374.2679	-200.532	370.2328	1322.9664	-219.9829	240.4749	1327.5647	-61.6646	275.304	1332.7925	-26.3943	294.4654	1366.1819	-50.0502	193.6732	1355.0264	-315.1274	214.9684	1374.4945	-357.4239	245.6604	1401.363	-321.92	428.6874	1126.5073	-237.6038	194.2543	1198.2909	-204.5323	346.3009	1149.6545	-6.8441	273.1402	1008.1699	-22.7067	294.0489	1021.509	40.0456	351.6255	867.3417	62.9049	399.8148	804.1688	41.5584	354.2731	798.3935	65.2329	424.1091	722.4959	54.6456	377.2394	718.6964	74.143	264.5585	1347.0449	-509.9592	219.6222	1258.2147	-617.5395	188.0392	1299.3696	-624.6	160.3229	1312.0409	-780.2187	164.9819	1323.9177	-856.8428	158.7374	1281.1711	-855.9835	146.6821	1324.7667	-933.1675	148.3049	1281.0875	-934.3259	389.2861	904.2869	-99.7097	198.8933	932.7112	-170.1189	374.9711	890.0618	-355.9631	193.6231	927.5115	-272.2667	313.5146	967.8734	-63.7689	289.5192	942.4409	-387.2451	138.132	1298.0591	-248.3009	150.7464	1201.3091	-275.1519	142.3966	1340.2329	-380.4049
105	0.52	233.9639	1374.2683	-200.5248	370.2554	1322.9486	-219.9947	240.4601	1327.5695	-61.6155	275.3298	1332.8324	-26.3966	294.4768	1366.1741	-50.0362	193.6861	1355.0361	-315.1085	214.9954	1374.4962	-357.4162	245.7279	1401.3433	-321.9095	428.7066	1126.5315	-237.5618	194.2591	1198.3027	-204.5661	346.3526	1149.6382	-6.8155	273.1109	1008.1962	-22.6422	294.0847	1021.5499	40.0729	351.6254	867.3818	62.9627	399.912	804.1591	41.5899	354.3267	798.405	65.2775	424.1591	722.5377	54.673	377.2465	718.7902	74.2031	264.5682	1347.0258	-509.9427	219.5496	1258.2217	-617.5148	188.0192	1299.3973	-624.579	160.2571	1312.0767	-780.2092	164.8995	1323.9247	-856.8125	158.6656	1281.2163	-855.9495	146.634	1324.8005	-933.1761	148.1967	1281.1561	-934.3039	389.2812	904.2869	-99.6852	198.8816	932.7098	-170.088	374.9778	890.0604	-355.9116	193.5205	927.4344	-271.8653	313.5436	967.8436	-63.7457	289.5882	942.4163	-387.248	138.1341	1298.0533	-248.3512	150.7992	1201.3181	-275.1985	142.3829	1340.236	-380.4258
106	0.525	233.9615	1374.2649	-200.532	370.2526	1322.9856	-219.9725	240.4648	1327.5959	-61.6168	275.3603	1332.8192	-26.4179	294.4515	1366.2168	-50.0296	193.7151	1355.0101	-315.118	215.0138	1374.4827	-357.3965	245.7463	1401.2903	-321.875	428.6891	1126.5397	-237.4889	194.2643	1198.3149	-204.5926	346.3431	1149.7136	-6.7601	273.0839	1008.2268	-22.5895	294.0909	1021.5493	40.0967	351.6988	867.3775	63.0023	399.9442	804.1732	41.6561	354.3483	798.4617	65.3261	424.2268	722.5779	54.7372	377.2872	718.8033	74.287	264.5447	1347.0206	-509.9294	219.5065	1258.235	-617.5032	187.9817	1299.3893	-624.5821	160.2109	1312.1227	-780.1805	164.863	1323.9441	-856.8083	158.5593	1281.2218	-855.915	146.5381	1324.8179	-933.116	148.154	1281.1378	-934.2846	389.3012	904.2697	-99.6746	198.9058	932.7134	-170.065	375.0075	890.1098	-355.8513	193.5324	927.4146	-271.8573	313.5069	967.876	-63.677	289.5999	942.4269	-387.2122	138.1072	1298.0813	-248.352	150.7887	1201.3075	-275.1814	142.3818	1340.2459	-380.4653
107	0.53	233.9682	1374.2858	-200.5239	370.2816	1322.9768	-219.9526	240.4897	1327.6147	-61.6187	275.3546	1332.8645	-26.3956	294.4462	1366.2485	-50.0011	193.7497	1355.0109	-315.0828	215.034	1374.4769	-357.3789	245.8071	1401.2584	-321.8809	428.7047	1126.5181	-237.4037	194.2906	1198.3156	-204.5946	346.3657	1149.6725	-6.6813	273.1393	1008.2595	-22.5726	294.0577	1021.5903	40.1661	351.7194	867.4026	63.0471	399.9859	804.2535	41.6729	354.3917	798.4651	65.3696	424.2777	722.6805	54.8056	377.4221	718.7787	74.3227	264.5028	1347.0596	-509.9033	219.4579	1258.2406	-617.515	187.954	1299.4266	-624.5747	160.1473	1312.1469	-780.1607	164.8003	1323.9641	-856.798	158.4859	1281.2714	-855.8916	146.4531	1324.8075	-933.075	148.039	1281.1998	-934.2594	389.2375	904.2736	-99.5927	198.5428	932.8537	-169.9279	375.0017	890.0928	-355.8267	193.552	927.4325	-271.824	313.4672	967.8663	-63.6548	289.5631	942.4451	-387.1193	138.0985	1298.0751	-248.3869	150.8547	1201.3531	-275.1488	142.3437	1340.2632	-380.4812
108	0.535	233.9792	1374.2681	-200.5269	370.2874	1322.984	-219.943	240.5005	1327.6354	-61.6141	275.3398	1332.9022	-26.3731	294.4116	1366.2576	-49.9633	193.7536	1355.005	-315.0771	215.0344	1374.4794	-357.3395	245.8377	1401.1999	-321.8555	428.7369	1126.532	-237.3662	194.2929	1198.301	-204.604	346.3854	1149.6912	-6.7001	273.1233	1008.2419	-22.5224	294.3438	1021.551	40.0697	351.7334	867.4761	63.0863	400.0494	804.2709	41.6772	354.4627	798.4807	65.4317	424.3523	722.749	54.8453	377.4313	718.8672	74.3744	264.5511	1346.962	-509.8947	219.4094	1258.2423	-617.503	187.9346	1299.4381	-624.5529	160.0774	1312.1576	-780.1355	164.7498	1323.9654	-856.767	158.4171	1281.2941	-855.8768	146.4077	1324.8352	-933.074	147.9946	1281.1732	-934.2505	389.3055	904.279	-99.5451	198.8936	932.7248	-170.0187	375.0435	890.1063	-355.765	193.4443	927.039	-272.0816	313.5019	967.8303	-63.6214	289.6191	942.3972	-387.0807	138.0843	1298.088	-248.4169	150.8435	1201.3229	-275.2148	142.3285	1340.2539	-380.4908
109	0.54	233.9871	1374.2683	-200.4978	370.3152	1323.0023	-219.93	240.5158	1327.6393	-61.6039	275.3601	1332.881	-26.3375	294.4479	1366.2594	-49.9515	193.7622	1354.9901	-315.0491	215.0367	1374.4807	-357.3212	245.8867	1401.1633	-321.8493	428.7575	1126.5538	-237.288	194.3107	1198.3112	-204.5948	346.3822	1149.6948	-6.6347	273.1328	1008.2673	-22.4874	294.319	1021.616	40.1542	351.7957	867.4773	63.1335	400.0686	804.2721	41.7598	354.4586	798.5158	65.487	424.4534	722.7463	54.905	377.4665	718.9396	74.4391	264.5296	1347.0029	-509.8845	219.3932	1258.2506	-617.4806	187.8848	1299.4353	-624.5552	160.0262	1312.1751	-780.1129	164.6868	1323.9897	-856.7492	158.3588	1281.3145	-855.8514	146.3277	1324.8688	-933.0487	147.9397	1281.1798	-934.2393	389.3514	904.2726	-99.5273	198.9192	932.7178	-169.9852	375.0978	890.1097	-355.7243	193.2879	926.9665	-271.7136	313.5423	967.8347	-63.6112	289.654	942.4016	-387.0906	138.0834	1298.094	-248.4047	150.8746	1201.3617	-275.1793	142.3253	1340.2627	-380.5104
110	0.545	233.9822	1374.2587	-200.5067	370.3143	1322.9828	-219.8884	240.526	1327.6569	-61.5704	275.3736	1332.9266	-26.312	294.4633	1366.2382	-49.9466	193.786	1354.9855	-315.0503	215.0868	1374.4401	-357.3052	245.905	1401.1365	-321.8372	428.8181	1126.5942	-237.2557	194.3392	1198.3226	-204.6009	346.3649	1149.7333	-6.5893	273.1721	1008.2874	-22.4606	294.3545	1021.616	40.1469	351.8284	867.4828	63.1978	400.0754	804.3685	41.829	354.5107	798.5331	65.5386	424.5209	722.8093	54.9258	377.5428	718.8809	74.4698	264.4806	1346.9983	-509.8764	219.3252	1258.2822	-617.4758	187.8618	1299.4304	-624.5377	159.9796	1312.1901	-780.0695	164.6149	1324.0291	-856.7164	158.2949	1281.3313	-855.8276	146.281	1324.8943	-933.0143	147.8526	1281.2363	-934.2178	389.3108	904.2495	-99.4454	198.9342	932.7369	-169.9542	375.1013	890.0954	-355.6771	193.3271	926.9632	-271.717	313.4869	967.8599	-63.5664	289.647	942.4167	-386.9958	138.055	1298.1184	-248.3863	150.8797	1201.307	-275.1888	142.2713	1340.262	-380.4974
111	0.55	233.9828	1374.276	-200.4957	370.3376	1322.9922	-219.8567	240.5269	1327.677	-61.5471	275.3826	1332.9678	-26.2994	294.431	1366.2733	-49.9314	193.7682	1354.9623	-315.0147	215.0606	1374.4416	-357.2886	245.9281	1401.1129	-321.8193	428.8268	1126.5649	-237.2005	194.3461	1198.3337	-204.5888	346.3613	1149.762	-6.5661	273.1691	1008.299	-22.3749	294.2906	1021.6207	40.2306	351.8571	867.528	63.2385	400.1108	804.3544	41.9355	354.6309	798.493	65.6068	424.5409	722.8854	54.9791	377.5757	718.988	74.5785	264.5207	1346.9402	-509.8546	219.3478	1258.3086	-617.4758	187.8514	1299.4779	-624.5113	159.9224	1312.2383	-780.0349	164.5546	1324.0516	-856.6979	158.2383	1281.3954	-855.7922	146.2372	1324.9246	-932.985	147.8196	1281.2584	-934.1984	389.3447	904.224	-99.4023	198.5784	932.8539	-169.8375	375.1418	890.0814	-355.599	193.3464	926.9668	-271.6814	313.4799	967.8065	-63.5347	289.64	942.4565	-386.986	138.0531	1298.0961	-248.4111	150.871	1201.3021	-275.1241	142.2486	1340.2613	-380.5093
112	0.555	234.0124	1374.2461	-200.4257	370.3501	1322.9998	-219.8369	240.534	1327.6794	-61.5034	275.4153	1332.9407	-26.2948	294.4201	1366.3218	-49.9113	193.7753	1354.9581	-314.9821	215.0705	1374.4208	-357.2566	245.9282	1401.1056	-321.7885	428.8326	1126.6086	-237.1181	194.3389	1198.3249	-204.5775	346.368	1149.7875	-6.5077	273.1872	1008.3201	-22.3426	294.3262	1021.6551	40.2755	351.8773	867.5513	63.2985	400.1815	804.3749	41.9385	354.6175	798.6144	65.6975	424.6573	722.8868	55.0428	377.5727	719.1166	74.6011	264.4488	1346.9921	-509.8009	219.3034	1258.3107	-617.4385	187.8053	1299.499	-624.4838	159.8744	1312.2566	-780.0131	164.5019	1324.0959	-856.6433	158.213	1281.4258	-855.8007	146.1574	1324.9683	-932.9777	147.7567	1281.2954	-934.1561	389.3373	904.2577	-99.3732	198.9417	932.7256	-169.8974	375.175	890.0909	-355.5536	193.3544	926.9656	-271.6578	313.4897	967.7969	-63.5058	289.7774	942.3245	-386.9476	138.058	1298.1149	-248.3687	150.9042	1201.3372	-275.1103	142.1995	1340.2371	-380.5075
